<svg width="174.9394203080699" height="172.7796875" viewBox="0 0 310 306.1728627583043" class="css-1j8o68f">
  <defs id="SvgjsDefs7953">
    <linearGradient id="SvgjsLinearGradient7962">
      <stop id="SvgjsStop7963" stop-color="#8f5e25" offset="0"/>
      <stop id="SvgjsStop7964" stop-color="#fbf4a1" offset="0.5"/>
      <stop id="SvgjsStop7965" stop-color="#8f5e25" offset="1"/>
    </linearGradient>
    <linearGradient id="SvgjsLinearGradient7966">
      <stop id="SvgjsStop7967" stop-color="#8f5e25" offset="0"/>
      <stop id="SvgjsStop7968" stop-color="#fbf4a1" offset="0.5"/>
      <stop id="SvgjsStop7969" stop-color="#8f5e25" offset="1"/>
    </linearGradient>
    <linearGradient id="SvgjsLinearGradient7970">
      <stop id="SvgjsStop7971" stop-color="#8f5e25" offset="0"/>
      <stop id="SvgjsStop7972" stop-color="#fbf4a1" offset="0.5"/>
      <stop id="SvgjsStop7973" stop-color="#8f5e25" offset="1"/>
    </linearGradient>
    <linearGradient id="SvgjsLinearGradient7974">
      <stop id="SvgjsStop7975" stop-color="#8f5e25" offset="0"/>
      <stop id="SvgjsStop7976" stop-color="#fbf4a1" offset="0.5"/>
      <stop id="SvgjsStop7977" stop-color="#8f5e25" offset="1"/>
    </linearGradient>
  </defs>
  <g id="SvgjsG7954" featurekey="rootContainer" transform="matrix(2.9388568246550153,0,0,2.9388568246550153,-0.11025446391769686,0.08425770368723878)" fill="url(#SvgjsLinearGradient7962)">
    <path xmlns="http://www.w3.org/2000/svg" d="M104.6 41.3a52.2 52.2 0 0 0-3.5-11.2A51.1 51.1 0 0 0 44.3 1a49.6 49.6 0 0 0-5.7 1.5 49.1 49.1 0 0 0-7.9 2.7A51.6 51.6 0 0 0 6.3 77a53.7 53.7 0 0 0 4.1 6.4 57 57 0 0 0 5 5.7 51.7 51.7 0 0 0 55.3 11.5l3.3-1.4 3-1.5a50.9 50.9 0 0 0 5.8-3.8l2.7-2.1 1.2-1.1 1.1-.9 2-1.8.7-.6.6-.7 1.8-2a48.5 48.5 0 0 0 5.9-8.3 50.4 50.4 0 0 0 5.6-14.7 51.6 51.6 0 0 0 .2-20.4zM87.1 88.6l-1.2 1.1-1.2 1.1-2.6 2.1a49.5 49.5 0 0 1-5.7 3.6l-3 1.5-3.2 1.3-4.9 1.6h-.5a50.9 50.9 0 0 1-20.3.1 51.8 51.8 0 0 1-11.1-3.6A50.5 50.5 0 0 1 22.9 91a52 52 0 0 1-9.1-9.4 50.3 50.3 0 0 1-3.7-5.7c-.6-1-1.1-2-1.6-3.1s-1-2.1-1.3-3.2a50.6 50.6 0 0 1 8.6-50.8l.8-.8.5-.6.6-.6 1.2-1.1 2.4-2.1A50.5 50.5 0 0 1 62.4 3.2a48.5 48.5 0 0 1 14.7 5.2 47 47 0 0 1 8.3 5.8l2 1.8.7.6.6.7 1.8 2a49.7 49.7 0 0 1 11.3 22.9 50.8 50.8 0 0 1-.1 20.2 51.6 51.6 0 0 1-3.6 11 50.2 50.2 0 0 1-6.6 10.5l-2.1 2.4zm-44.9 13a50.1 50.1 0 0 1-13.7-5 51.8 51.8 0 0 1-6.2-4 55.2 55.2 0 0 1-5.5-4.8 49.9 49.9 0 0 1-11-53.2c.4-1.1.9-2.1 1.3-3.1l.6-1.3a50.2 50.2 0 0 0-3.4 11 51.3 51.3 0 0 0 2.4 28.5c.4 1.1.9 2.2 1.4 3.2s1 2.1 1.6 3.1a50.6 50.6 0 0 0 3.7 5.8 51.5 51.5 0 0 0 9.2 9.5 50.9 50.9 0 0 0 10.7 6.5 51 51 0 0 0 28.7 3.9 50.3 50.3 0 0 1-19.8-.1zm61.9-39.9a50.2 50.2 0 0 1-5.5 14.7 48.4 48.4 0 0 1-5.8 8.3l-1.8 2-.6.7-.7.6-1.9 1.7h.2l2.3-2.4 2.1-2.5A51.3 51.3 0 0 0 98.9 74a51.4 51.4 0 0 0 3.2-31.6 49.6 49.6 0 0 0-2.5-8.2 49.4 49.4 0 0 0-3.1-6.5 48.7 48.7 0 0 0-5.9-8.3l-1.8-2-.6-.7-.7-.6-2-1.8A49.9 49.9 0 0 0 77.3 8a49.3 49.3 0 0 0-6.5-3.2 49.8 49.8 0 0 0-8.2-2.6A52.2 52.2 0 0 0 49.9 1a50.8 50.8 0 0 1 22.7 3.2l3.2 1.3 3.1 1.6a50.1 50.1 0 0 1 5.7 3.7l2.6 2.1 1.2 1.1 1.2 1.1 2.3 2.3 2.1 2.4a50.4 50.4 0 0 1 6.5 10.5 51.6 51.6 0 0 1 3.6 11 51.1 51.1 0 0 1 0 20.3z"/>
  </g>
  <g id="SvgjsG7955" featurekey="symbolFeature-0" transform="matrix(0.5208333333333334,0,0,0.5208333333333334,122,79)" fill="url(#SvgjsLinearGradient7966)">
    <title xmlns="http://www.w3.org/2000/svg">miscellaneous 98 final</title>
    <path xmlns="http://www.w3.org/2000/svg" d="M18.136,82.99786c-4.5423,11.39252-4.67877,20.96863.60913,26.257,2.71094,2.71094,6.54395,3.998,11.17383,3.998a41.83871,41.83871,0,0,0,15.084-3.387C49.84674,121.13281,56.52136,128,64,128s14.1535-6.86743,18.99725-18.1347a41.84066,41.84066,0,0,0,15.0838,3.38666c4.62793,0,8.46387-1.28711,11.17383-3.99707,5.2879-5.28839,5.15143-14.8645.60913-26.257C121.13208,78.15405,128,71.47906,128,64s-6.86792-14.15405-18.136-18.99786c4.5423-11.39252,4.67877-20.96863-.60913-26.257C103.966,13.45673,94.39,13.593,82.99756,18.13525,78.15381,6.86768,71.47888,0,64,0,56.52094,0,49.84595,6.86792,45.0022,18.13586c-11.39221-4.54242-20.96826-4.67908-26.25708.60925-5.2879,5.28839-5.15143,14.8645-.60913,26.257C6.86792,49.84595,0,56.52094,0,64S6.86792,78.15405,18.136,82.99786Zm3.43726,23.42889c-4.12073-4.12115-3.69537-12.18951.27325-21.96228a100.74734,100.74734,0,0,0,17.21082,4.47821A100.74953,100.74953,0,0,0,43.5354,106.1532C33.76349,110.12109,25.69562,110.54639,21.57324,106.42676Zm15.4931-38.06244Q35.31485,66.18005,33.70953,64q1.60437-2.1785,3.35681-4.36432C37.02716,61.07831,37,62.52991,37,64S37.02716,66.92169,37.06635,68.36432Zm-5.81647-7.8147a98.95732,98.95732,0,0,1-7.77594-13.33582A98.95864,98.95864,0,0,1,38.4021,43.28235q-.65579,4.687-1.01208,9.69574Q34.10281,56.76352,31.24988,60.54962ZM37.39,75.02191q.35229,5.00116,1.01208,9.69574a98.95864,98.95864,0,0,1-14.92816-3.93146,98.95732,98.95732,0,0,1,7.77594-13.33582Q34.10028,71.2283,37.39,75.02191ZM47.73633,47.73633q3.38214-3.38214,6.85565-6.43658Q59.20313,41.00742,64,41q4.78894,0,9.40808.29974,3.46307,3.05063,6.85559,6.43658,3.38425,3.38425,6.43689,6.86023Q86.99252,59.20551,87,64q0,4.78647-.29944,9.40344-3.05228,3.46518-6.43689,6.86023-3.38425,3.38425-6.86023,6.43689Q68.79449,86.99252,64,87q-4.78647,0-9.40344-.29944-3.46518-3.05237-6.86023-6.43689-3.38425-3.38425-6.43689-6.86023Q41.00748,68.79449,41,64q0-4.78647.29944-9.40344Q44.35172,51.13138,47.73633,47.73633Zm-5.86707.30457q.306-2.78275.7124-5.45923,2.67462-.40594,5.45911-.71234c-1.04767.99225-2.09314,1.99945-3.13257,3.03888S42.86151,46.99316,41.86926,48.04089ZM59.62476,37.06665q2.18939-1.756,4.37518-3.36017,2.18372,1.60812,4.37512,3.36017C66.92889,37.02722,65.47375,37,64,37S61.07092,37.02722,59.62476,37.06665ZM79.959,41.86926q2.78275.306,5.45935.7124.406,2.67471.7124,5.45923c-.99225-1.04773-1.99951-2.09326-3.03894-3.13269S81.00671,42.86157,79.959,41.86926Zm6.17175,38.08984q-.306,2.78275-.7124,5.45923-2.6716.40558-5.45288.71167,1.56866-1.4859,3.12634-3.03821C84.13123,82.05237,85.13849,81.00684,86.13074,79.95911ZM68.36438,90.93365q-2.18427,1.7515-4.3645,3.35693-2.1785-1.60437-4.36438-3.35693C61.07819,90.9729,62.52985,91,64,91S66.92175,90.97284,68.36438,90.93365ZM48.03473,86.13q-2.77954-.30579-5.45306-.71167-.406-2.67471-.7124-5.45923c.99225,1.04773,1.99951,2.09326,3.03894,3.13269Q46.4646,84.64819,48.03473,86.13Zm-4.75238,3.4679q4.68457.65543,9.69055,1.01166,3.78571,3.28784,7.57281,6.14337a98.93892,98.93892,0,0,1-13.332,7.773A98.95712,98.95712,0,0,1,43.28235,89.5979ZM64,124c-5.82672,0-11.23035-6.00427-15.33435-15.71844a100.86955,100.86955,0,0,0,15.33472-9.01013,100.85719,100.85719,0,0,0,15.33417,9.00964C75.23053,117.99561,69.82684,124,64,124Zm16.786-19.47333A98.95035,98.95035,0,0,1,67.45435,96.7533q3.77847-2.85123,7.57318-6.14374,4.99814-.3522,9.69012-1.01166A98.95554,98.95554,0,0,1,80.786,104.52667Zm25.64075,1.90009c-4.12122,4.12164-12.18964,3.69629-21.96252-.27258a100.752,100.752,0,0,0,4.47845-17.21149,100.74734,100.74734,0,0,0,17.21082-4.47821C110.12213,94.23724,110.54749,102.3056,106.42676,106.42676ZM90.93365,59.63568Q92.68515,61.81995,94.29047,64q-1.60437,2.1785-3.35681,4.36432C90.97284,66.92169,91,65.47009,91,64S90.97284,61.07831,90.93365,59.63568ZM90.61,52.97809q-.35229-5.00116-1.01208-9.69574a98.95864,98.95864,0,0,1,14.92816,3.93146,98.95732,98.95732,0,0,1-7.77594,13.33582Q93.89972,56.7717,90.61,52.97809Zm0,22.04382q3.2872-3.78543,6.14014-7.57153a98.95732,98.95732,0,0,1,7.77594,13.33582A98.95864,98.95864,0,0,1,89.5979,84.71765Q90.25369,80.03061,90.61,75.02191ZM124,64c0,5.82764-6.006,11.23212-15.723,15.3363A100.74259,100.74259,0,0,0,99.274,64,100.74259,100.74259,0,0,0,108.277,48.6637C117.994,52.76788,124,58.17236,124,64ZM98.04395,18.66992c3.53418,0,6.41016.93164,8.38281,2.90332,4.12073,4.12115,3.69537,12.18951-.27325,21.96228a100.74734,100.74734,0,0,0-17.21082-4.47821,100.7499,100.7499,0,0,0-4.47839-17.21118A37.46624,37.46624,0,0,1,98.04395,18.66992ZM84.71765,38.4021q-4.68713-.65579-9.696-1.01208-3.78415-3.286-7.569-6.13824a99.02219,99.02219,0,0,1,13.33344-7.77832A98.94871,98.94871,0,0,1,84.71765,38.4021ZM64,4c5.82751,0,11.23181,6.00574,15.336,15.72223a100.74627,100.74627,0,0,0-15.33661,9.0036A100.75519,100.75519,0,0,0,48.6637,19.7229C52.76788,10.006,58.17236,4,64,4ZM47.21393,23.47357a99.02874,99.02874,0,0,1,13.33282,7.778q-3.77664,2.84985-7.569,6.13849-5.00089.3522-9.69537,1.01208A98.95423,98.95423,0,0,1,47.21393,23.47357ZM21.57324,21.57324c1.97266-1.97266,4.84766-2.90332,8.38281-2.90332a37.46542,37.46542,0,0,1,13.57959,3.17633,100.74855,100.74855,0,0,0-4.47833,17.21106A100.74734,100.74734,0,0,0,21.8465,43.53552C17.87787,33.76276,17.45251,25.6944,21.57324,21.57324ZM19.723,48.6637A100.74259,100.74259,0,0,0,28.726,64,100.74259,100.74259,0,0,0,19.723,79.3363C10.006,75.23212,4,69.82764,4,64S10.006,52.76788,19.723,48.6637Z"/>
    <path xmlns="http://www.w3.org/2000/svg" d="M64,81A17,17,0,1,0,47,64,17.019,17.019,0,0,0,64,81Zm0-30A13,13,0,1,1,51,64,13.01505,13.01505,0,0,1,64,51Z"/>
    <path xmlns="http://www.w3.org/2000/svg" d="M64,72a8,8,0,1,0-8-8A8.00917,8.00917,0,0,0,64,72Zm0-12a4,4,0,1,1-4,4A4.004,4.004,0,0,1,64,60Z"/>
  </g>
  <g id="SvgjsG7956" featurekey="nameFeature-0" transform="matrix(1.0040273083294236,0,0,1.0040273083294236,54.17736805442516,154.31312370137022)" fill="url(#SvgjsLinearGradient7970)">
    <path d="M16.28 16.2 c-0.2 0.84 -0.92 2.72 -1.88 5.28 c5.72 -0.8 11.04 -0.88 14.4 -0.44 c2.64 0.36 2.92 0.64 3.6 1.08 c0.84 0.56 0.96 0.84 -0.04 0.6 c-0.92 -0.2 -2 -0.4 -3.16 -0.6 c-4.36 -0.68 -10.12 -0.44 -15.12 0.16 l-0.84 2.32 c-0.88 2.28 -2.04 5.92 -3.2 9.68 c1.84 0 3.64 0.04 4.88 0.08 c1.4 0 2.36 -0.04 3.24 -0.16 c0.52 -0.04 0.52 0.04 0.2 0.28 c-0.52 0.36 -1.56 0.8 -8.28 0.76 l-0.32 0 c-0.8 2.64 -1.56 5.24 -2.16 7.48 c-1.56 5.64 -1.44 7.72 -0.88 8.24 s-0.04 0.56 -1.04 0 c-1.04 -0.52 -0.68 -2.76 0.68 -8.32 c0.56 -2.44 1.36 -4.88 2.24 -7.4 c-5.92 0.08 -6.72 0.76 -7.04 1.36 c-0.2 0.48 -0.48 0.16 -0.4 -0.24 c0.12 -0.4 0.44 -1.28 3 -1.76 c1.16 -0.24 2.92 -0.32 4.76 -0.32 c1.04 -2.88 2.16 -5.88 3.24 -9.2 c0.32 -1 0.64 -1.88 0.92 -2.64 c-1.84 0.24 -3.56 0.56 -5 0.88 c-5.08 1.12 -6.76 2.32 -6.88 2.92 c-0.04 0.24 -0.48 0.44 -0.36 -0.12 c0.2 -1.36 2.2 -2.28 5.28 -3.08 c2.4 -0.6 4.88 -1.08 7.28 -1.44 c1.36 -3.52 2.12 -4.32 2.32 -5.04 c0.24 -0.92 0.72 -1.12 0.56 -0.36 z M23.954 40.2 c2.8 0 10.92 -3.76 13.36 -5.08 c0.2 -0.12 1.04 -0.08 0.36 0.36 c-2.64 1.72 -11.12 5.56 -13.76 5.56 c-1.96 0 -2.52 -1.16 -2.52 -2 s0.16 -1.24 0.08 -1.32 c-0.12 -0.12 -0.36 -0.08 -1.64 0.6 c-1.16 0.68 -2.44 1.2 -2.84 1.2 c-0.56 0 -0.96 -0.36 -0.96 -0.6 c0 -0.76 0.48 -1.8 2 -2.92 c1.28 -1 2.08 -1.2 2.76 -1.2 c0.92 0 1.48 1.44 1.08 1.44 s-0.52 -0.8 -0.96 -0.8 c-0.4 0 -1.2 0.32 -2.32 1.08 c-1.04 0.68 -1.84 1.84 -1.84 2.16 c0 0.08 0.04 0.12 0.16 0.12 c0.36 0 1.04 -0.28 2.16 -0.84 c1.52 -0.72 2.52 -1.28 3 -1.28 c0.16 0 0.52 0.08 0.52 0.36 c0 0.32 -0.4 1.04 -0.4 1.96 c0 0.68 0.72 1.2 1.76 1.2 z M31.267999999999997 39.2 c-0.12 -0.92 0.52 -2.16 1.96 -3.36 c1.28 -1.08 2.28 -1.28 2.96 -1.28 c0.92 0 0.84 1 0.44 0.84 c-0.52 -0.2 -1.52 -0.04 -2.8 0.92 s-1.76 1.92 -1.72 2.6 c0.04 0.84 1.28 1.2 2.6 1.04 c2.96 -0.32 9.48 -3.32 12.32 -4.84 c0.2 -0.12 1.04 -0.08 0.4 0.36 c-3 1.92 -9.76 4.72 -12.48 5.12 c-1.88 0.28 -3.48 -0.04 -3.68 -1.4 z M47.262 40.68 c0.28 -1.28 0.92 -3 1.48 -4.08 c-0.28 0.32 -0.72 0.84 -1.48 1.64 c-1.36 1.44 -3.64 3.2 -4.36 3.2 c-0.56 0 -0.88 -0.32 -0.8 -1.36 c0.08 -0.92 0.56 -2.08 0.92 -2.84 c0.48 -1.08 1.24 -2.16 1.64 -2.24 c0.4 -0.04 0.48 0.32 0.48 0.44 c0 0.32 -0.96 1.12 -1.52 2.2 c-0.44 0.88 -0.72 1.76 -0.8 2.08 c-0.12 0.64 0.04 0.92 0.24 0.92 c0.64 0 2.88 -1.88 3.72 -2.8 c1.52 -1.64 2.48 -2.88 3.04 -2.76 c0.48 0.12 0.28 0.4 -0.28 1.6 c-0.48 1.04 -1.16 2.72 -1.52 4.08 c-0.36 1.44 0.04 1.88 0.52 1.88 c2.92 0 10.6 -5.72 14.24 -7.68 c0.2 -0.08 1 -0.04 0.36 0.4 c-3.6 2.32 -11.44 8.08 -14.68 8.08 c-1.2 0 -1.64 -0.88 -1.2 -2.76 z M60.016 35.32 c0.08 -0.32 0.36 -0.32 0.56 -0.36 c0.24 0 0.36 0.08 0.32 0.44 c-0.08 0.76 -0.6 2.16 -0.68 2.48 c-0.04 0.08 0 0.16 0.12 0.16 s1.28 -0.56 2.08 -0.96 c1.16 -0.6 1.96 -1.04 2.56 -1.04 s1.08 0.48 1.08 1.28 c-0.08 1.12 -0.04 1.8 0.32 1.84 c0.72 0.16 3.32 -0.64 5.32 -1.48 l6.16 -2.56 c0.36 -0.16 0.56 0.4 0.12 0.6 c-1.64 0.84 -3.92 1.76 -6.04 2.68 c-2.08 0.88 -4.8 1.76 -6 1.52 c-0.84 -0.16 -1.04 -1 -0.96 -2.12 c0.04 -0.6 0 -0.84 -0.12 -0.92 c-0.2 -0.12 -0.64 0.04 -1.4 0.44 c-0.64 0.32 -2.84 1.44 -3.2 1.44 c-0.24 0 -0.96 -0.28 -0.96 -0.6 c0 -0.2 0.52 -1.56 0.72 -2.84 z M78.24999999999999 35.04 c2.08 -3.56 4.44 -7.4 6.16 -10.24 l0.96 -2.6 c1.6 -4.32 1.76 -4.84 2.12 -4.84 s0.96 0.8 0.88 1.2 c-0.04 0.2 -1.08 2.16 -2.64 5 c-1.64 4.92 -3.72 10.76 -5.52 17.2 c-1.96 6.96 -2.12 9.88 -1.76 9.96 c0.32 0.08 -0.12 0.72 -0.56 0.48 c-0.6 -0.32 -0.28 -3.56 1.68 -10.84 c1.24 -4.6 2.6 -8.92 3.88 -12.72 c-1.44 2.44 -3.04 5.12 -4.6 7.6 c0.6 0.28 1.04 0.56 1.28 0.76 c0.24 0.24 0.04 0.52 -0.28 0.36 l-1.36 -0.6 c-4.72 7.4 -5.32 8.32 -6.08 8.32 c-0.64 0 -1.32 -0.92 -1.32 -2.2 c0 -3.2 2.4 -7.12 5.64 -7.12 c0.48 0 1.04 0.12 1.52 0.28 z M72.41 43.36 c0.44 0 4.04 -5.32 5.48 -7.76 c-0.24 -0.04 -0.48 -0.08 -0.72 -0.08 c-3 0 -5.16 3.72 -5.16 6.32 c0 0.68 0.04 1.52 0.4 1.52 z M82.36399999999999 38.36 c0.32 -0.68 0.72 -1.28 1.08 -1.76 c-0.2 -0.2 -0.4 -0.4 -0.52 -0.68 c-0.72 -1.52 0.6 -3.32 2.36 -3.32 s2.84 1.64 2.84 4.16 l0 0.12 c0.16 0 0.32 0 0.52 -0.04 c2 -0.16 5.72 -1.12 7.4 -1.72 c0.28 -0.12 0.48 0.32 0.28 0.4 c-0.88 0.36 -5.44 1.84 -7.8 2.04 c-0.16 0.04 -0.32 0.04 -0.44 0.04 c-0.36 3.84 -3.2 6.96 -5.04 6.96 c-1.8 0 -2.28 -3.08 -0.68 -6.2 z M82.88399999999999 43.84 c1.8 0 3.96 -2.72 4.32 -6.24 c-1.08 0 -2.24 -0.16 -3.08 -0.56 c-0.32 0.44 -0.68 0.96 -0.96 1.48 c-1.52 2.96 -1.04 5.32 -0.28 5.32 z M85.564 35.28 c0 0.08 -0.44 0.48 -0.96 1.12 c0.72 0.32 1.68 0.48 2.68 0.48 l0 -0.4 c0 -2.08 -1 -3.2 -2.12 -3.2 c-1.08 0 -2.08 1.04 -1.52 2.24 c0.08 0.2 0.2 0.32 0.32 0.48 c0.6 -0.64 1.12 -1 1.24 -1 c0.24 0 0.36 0.12 0.36 0.28 z M105.95199999999998 17.64 c-1.12 2.56 -3.92 11.08 -5.44 16.8 c-1.44 5.32 -2.28 10.04 -2.36 12.72 c-0.04 1.12 -0.12 2.96 0.88 2.96 c1.64 0 7.16 -3.84 13 -13.64 c5.96 -10.04 7.8 -18.6 7.64 -22.52 c-0.08 -1.12 -0.36 -1.68 -0.92 -1.68 c-0.28 0 -0.64 0.4 -0.8 0.64 s-0.24 0.44 -0.36 0.44 c-0.28 0 -0.32 -0.4 -0.12 -0.76 c0.28 -0.6 0.68 -0.92 1.36 -0.96 c1.04 0 1.72 1.16 1.76 2.16 c0.4 5.28 -3.2 16.16 -7.68 23.2 c-4.36 6.88 -10.56 13.68 -13.88 13.68 c-1.4 0 -1.92 -1.52 -1.84 -3.36 c0.16 -3.16 1.08 -8.44 2.36 -13.28 c1.28 -4.88 4.36 -13.56 5.48 -16.16 c0.52 -1.16 1.08 -0.6 0.92 -0.24 z M119.54599999999999 40.48 c-2.08 0.16 -3 -1.6 -2.16 -3.44 c0.8 -1.84 2.4 -2.56 3.24 -2.4 c0.76 0.12 1 0.76 0.68 1.68 c-0.48 1.24 -1.96 2.12 -3.4 2.6 c0.16 0.56 0.68 0.84 1.4 0.8 c1.84 -0.16 4.4 -1.44 11.64 -4.6 c0.52 -0.24 0.64 0.28 0.32 0.4 c-6.08 2.68 -9.52 4.8 -11.72 4.96 z M118.10599999999998 37.32 c-0.2 0.44 -0.28 0.8 -0.28 1.12 c1.16 -0.4 2.56 -1.52 2.88 -2.4 c0.12 -0.36 0.08 -0.72 -0.2 -0.8 c-0.44 -0.12 -1.72 0.4 -2.4 2.08 z M129.85999999999999 41.24 c-0.88 -0.12 -1.48 -1.04 -0.52 -3.04 c0.4 -0.88 0.68 -1.4 0.68 -1.6 c0 -0.16 -0.12 -0.28 -0.96 -0.6 c-1.08 -0.4 -1.24 -1.44 -1.04 -2.24 c0.36 -1.44 1.52 -1.88 2.12 -1.76 c0.32 0.08 0.76 0.52 0.72 0.84 c-0.12 1.04 -0.76 1.72 -1.84 2.32 c0.08 0.08 0.2 0.16 0.36 0.2 c1.48 0.6 1.68 0.72 1.68 1.08 c0 0.32 -0.44 0.96 -0.96 2.08 c-0.6 1.24 -0.64 1.76 0.04 1.84 c2.24 0.28 7.96 -1.52 12.16 -5.12 c0.4 -0.36 0.88 -0.08 0.52 0.24 c-4.24 4.04 -10.92 6.04 -12.96 5.76 z M128.82 33.96 c-0.08 0.24 -0.12 0.48 -0.04 0.72 c1.16 -0.72 1.44 -1.32 1.48 -1.88 c0 -0.08 0 -0.12 -0.08 -0.16 c-0.4 -0.12 -1.16 0.68 -1.36 1.32 z M137.37399999999997 56.56 c-1.08 0 -2.52 -0.72 -2.52 -2.76 c0 -2.96 1.92 -7.04 6.56 -11.76 c1.36 -1.4 3 -2.52 4.68 -3.48 c-0.08 -2.08 -0.52 -3.24 -1.56 -3.24 c-0.6 0 -1.2 0.52 -1.8 0.96 c-0.8 0.68 -1.68 1.44 -2.52 1.44 c-1.48 0 -1.48 -2.52 0.64 -3.52 c1.64 -0.76 2.8 -0.04 3.16 0.44 c0.16 0 0.36 -0.04 0.56 -0.04 c1.2 0 2.12 1.2 2.28 3.56 c4.48 -2.28 9.28 -3.2 10.76 -3.2 c0.6 0 0.76 0.68 0.2 0.68 c-1.6 0 -6.36 0.8 -10.92 3.36 l0 0.04 c0 3.64 -1.12 8.68 -3.08 12.08 c-1.84 3.28 -4.32 5.44 -6.44 5.44 z M143.05399999999997 50.56 c1.96 -3.4 3.08 -8.32 3.08 -10.96 l0 -0.16 c-1.44 0.84 -2.8 1.88 -4.04 3.16 c-4.84 4.88 -6.44 9.04 -6.44 11.32 c0 1.16 0.48 1.88 1.4 1.88 c1.48 0 3.96 -1.64 6 -5.24 z M142.21399999999997 35.64 c0.36 -0.32 0.76 -0.64 1.24 -0.84 c-0.6 -0.32 -1.48 -0.52 -2.44 0.12 c-1.48 0.96 -1.4 2.12 -0.8 2.12 c0.44 0 1.16 -0.72 2 -1.4 z M159.128 40.2 c2.8 0 10.92 -3.76 13.36 -5.08 c0.2 -0.12 1.04 -0.08 0.36 0.36 c-2.64 1.72 -11.12 5.56 -13.76 5.56 c-1.96 0 -2.52 -1.16 -2.52 -2 s0.16 -1.24 0.08 -1.32 c-0.12 -0.12 -0.36 -0.08 -1.64 0.6 c-1.16 0.68 -2.44 1.2 -2.84 1.2 c-0.56 0 -0.96 -0.36 -0.96 -0.6 c0 -0.76 0.48 -1.8 2 -2.92 c1.28 -1 2.08 -1.2 2.76 -1.2 c0.92 0 1.48 1.44 1.08 1.44 s-0.52 -0.8 -0.96 -0.8 c-0.4 0 -1.2 0.32 -2.32 1.08 c-1.04 0.68 -1.84 1.84 -1.84 2.16 c0 0.08 0.04 0.12 0.16 0.12 c0.36 0 1.04 -0.28 2.16 -0.84 c1.52 -0.72 2.52 -1.28 3 -1.28 c0.16 0 0.52 0.08 0.52 0.36 c0 0.32 -0.4 1.04 -0.4 1.96 c0 0.68 0.72 1.2 1.76 1.2 z M171.52199999999996 41.24 c-0.88 -0.12 -1.48 -1.04 -0.52 -3.04 c0.4 -0.88 0.68 -1.4 0.68 -1.6 c0 -0.16 -0.12 -0.28 -0.96 -0.6 c-1.08 -0.4 -1.24 -1.44 -1.04 -2.24 c0.36 -1.44 1.52 -1.88 2.12 -1.76 c0.32 0.08 0.76 0.52 0.72 0.84 c-0.12 1.04 -0.76 1.72 -1.84 2.32 c0.08 0.08 0.2 0.16 0.36 0.2 c1.48 0.6 1.68 0.72 1.68 1.08 c0 0.32 -0.44 0.96 -0.96 2.08 c-0.6 1.24 -0.64 1.76 0.04 1.84 c2.24 0.28 7.96 -1.52 12.16 -5.12 c0.4 -0.36 0.88 -0.08 0.52 0.24 c-4.24 4.04 -10.92 6.04 -12.96 5.76 z M170.48199999999997 33.96 c-0.08 0.24 -0.12 0.48 -0.04 0.72 c1.16 -0.72 1.44 -1.32 1.48 -1.88 c0 -0.08 0 -0.12 -0.08 -0.16 c-0.4 -0.12 -1.16 0.68 -1.36 1.32 z M186.03599999999997 40.2 c2.8 0 10.92 -3.76 13.36 -5.08 c0.2 -0.12 1.04 -0.08 0.36 0.36 c-2.64 1.72 -11.12 5.56 -13.76 5.56 c-1.96 0 -2.52 -1.16 -2.52 -2 s0.16 -1.24 0.08 -1.32 c-0.12 -0.12 -0.36 -0.08 -1.64 0.6 c-1.16 0.68 -2.44 1.2 -2.84 1.2 c-0.56 0 -0.96 -0.36 -0.96 -0.6 c0 -0.76 0.48 -1.8 2 -2.92 c1.28 -1 2.08 -1.2 2.76 -1.2 c0.92 0 1.48 1.44 1.08 1.44 s-0.52 -0.8 -0.96 -0.8 c-0.4 0 -1.2 0.32 -2.32 1.08 c-1.04 0.68 -1.84 1.84 -1.84 2.16 c0 0.08 0.04 0.12 0.16 0.12 c0.36 0 1.04 -0.28 2.16 -0.84 c1.52 -0.72 2.52 -1.28 3 -1.28 c0.16 0 0.52 0.08 0.52 0.36 c0 0.32 -0.4 1.04 -0.4 1.96 c0 0.68 0.72 1.2 1.76 1.2 z"/>
  </g>
  <g id="SvgjsG7957" featurekey="sloganFeature-0" transform="matrix(0.48807920935130156,0,0,0.48807920935130156,74.75845724165818,218.22771017466897)" fill="url(#SvgjsLinearGradient7974)">
    <path d="M0.7 20.04 c-0.2 0.02 -0.28 -0.68 -0.12 -0.72 c1.16 -0.3 2.06 -0.48 2.06 -1.96 l0 -8.88 c0 -1.28 -0.82 -1.62 -1.68 -1.84 c-0.16 -0.04 -0.06 -0.7 0.1 -0.68 c1.46 0.16 3.98 0.12 5.2 0.12 c1.82 0 3.14 -0.08 4.78 -0.12 c0.48 0 0.48 0.32 0.38 0.78 l-0.48 1.9 c-0.06 0.28 -0.56 0.28 -0.64 0 c-0.3 -0.98 -0.9 -1.54 -3.4 -1.54 c-1.4 0 -1.86 0.36 -1.86 1.4 l0 3.46 c0 0.52 0.26 0.62 0.66 0.62 l0.44 0 c1.62 0 3.02 -0.16 3.84 -0.9 c0.2 -0.18 0.64 -0.14 0.46 0.26 l-1.14 2.52 c-0.16 0.36 -0.46 0.32 -0.68 0.02 c-0.46 -0.64 -1.48 -0.9 -2.64 -0.9 l-0.28 0 c-0.4 0 -0.66 0.1 -0.66 0.62 l0 3.16 c0 1.48 0.92 1.6 2.56 1.96 c0.18 0.04 0.08 0.74 -0.12 0.72 c-1.44 -0.1 -2.48 -0.12 -3.64 -0.12 s-2.2 0.02 -3.14 0.12 z M31.2925 19.5 c0.16 0 0.12 0.54 0 0.58 c-1.26 0.42 -3 0.36 -4.2 -1.18 l-3.08 -3.96 c-0.86 -1.12 -1.88 -1.28 -3.28 -1.3 l0 3.88 c0 1.4 0.96 1.64 2.24 1.8 c0.14 0.02 0.04 0.68 -0.12 0.68 l-6.06 0 c-0.16 0 -0.28 -0.66 -0.12 -0.68 c1.02 -0.14 1.66 -0.54 1.66 -1.8 l0 -8.92 c0 -1.32 -0.7 -1.7 -1.66 -1.96 c-0.16 -0.04 -0.06 -0.7 0.12 -0.68 c0.78 0.1 1.66 0.12 2.3 0.12 c1.48 0 2.86 -0.12 3.82 -0.12 c3.02 0 5.04 1.24 5.04 3.7 c0 2.32 -1.88 3.46 -3.56 3.56 l0 0.1 c0.8 0 1.38 0.34 2.26 1.44 l2.98 3.74 c0.62 0.78 1.22 1 1.66 1 z M21.3125 12.719999999999999 c2.98 0 4.12 -0.52 4.12 -2.52 c0 -2.14 -1.36 -3.2 -3.14 -3.2 c-1.18 0 -1.56 0.48 -1.56 1.6 l0 4.12 l0.58 0 z M43.425000000000004 20.32 c-4.16 0 -7.22 -3.08 -7.22 -7.24 c0 -4.04 2.88 -7.4 7.26 -7.4 c4.18 0 7.22 3.06 7.22 7.22 c0 4.06 -2.86 7.42 -7.26 7.42 z M44.205000000000005 18.96 c1.76 0 4.1 -1.16 4.1 -4.94 c0 -4.04 -2.74 -6.98 -5.62 -6.98 c-1.76 0 -4.08 1.16 -4.08 4.92 c0 4.08 2.74 7 5.6 7 z M69.25750000000001 20.2 c-0.34 0 -0.52 -0.14 -0.74 -0.38 l-9.52 -9.96 l0 7.6 c0 1.36 0.8 1.58 1.94 1.86 c0.16 0.04 0.08 0.68 -0.12 0.68 l-4.74 0 c-0.16 0 -0.28 -0.62 -0.1 -0.68 c0.84 -0.28 1.64 -0.44 1.64 -1.86 l0 -7.76 c0 -1.42 -0.22 -2.1 -0.74 -2.8 c-0.18 -0.24 -0.36 -0.4 -0.36 -0.46 c0 -0.18 0.12 -0.44 0.4 -0.44 l1.48 0 c0.2 0 0.34 0.02 0.48 0.18 l9.32 9.86 l0 -7.52 c0 -1.42 -0.9 -1.58 -1.94 -1.84 c-0.16 -0.04 -0.08 -0.68 0.12 -0.68 l4.74 0 c0.16 0 0.26 0.64 0.1 0.68 c-0.88 0.26 -1.64 0.42 -1.64 1.84 l0 7.78 c0 1.32 0.04 2.78 0.24 3.52 c0.08 0.3 -0.24 0.38 -0.56 0.38 z M79.29 20 c-0.18 0 -0.3 -0.64 -0.14 -0.66 c1.38 -0.18 2.3 -0.46 2.3 -1.54 l0 -9.86 c0 -0.5 -0.18 -0.66 -0.66 -0.66 l-0.54 0 c-1.9 0 -2.96 0.44 -3.36 1.3 c-0.18 0.4 -0.86 0.34 -0.78 0 c0.18 -0.72 0.34 -1.34 0.46 -2.4 c0.04 -0.38 0.26 -0.36 0.62 -0.32 c0.92 0.1 1.76 0.14 5.56 0.14 s5.14 -0.04 6.1 -0.14 c0.36 -0.04 0.7 -0.06 0.58 0.32 c-0.3 0.94 -0.5 1.68 -0.62 2.4 c-0.06 0.34 -0.6 0.36 -0.68 0 c-0.2 -0.84 -1.08 -1.3 -2.8 -1.3 l-0.62 0 c-0.48 0 -0.78 0.16 -0.78 0.66 l0 9.86 c0 1.08 0.92 1.36 2.3 1.54 c0.16 0.02 0.04 0.66 -0.14 0.66 l-6.8 0 z M95.1025 15.84 c-0.36 0.06 -0.48 -1.2 -0.12 -1.26 l5.64 -0.92 c0.36 -0.06 0.48 1.2 0.12 1.26 z M106.37500000000001 20.04 c-0.2 0.02 -0.28 -0.68 -0.12 -0.72 c1.16 -0.3 2.06 -0.48 2.06 -1.96 l0 -8.88 c0 -1.28 -0.82 -1.62 -1.68 -1.84 c-0.16 -0.04 -0.06 -0.7 0.1 -0.68 c1.46 0.16 3.98 0.12 5.2 0.12 c1.82 0 3.14 -0.08 4.78 -0.12 c0.48 0 0.48 0.32 0.38 0.78 l-0.48 1.9 c-0.06 0.28 -0.56 0.28 -0.64 0 c-0.3 -0.98 -0.9 -1.54 -3.4 -1.54 c-1.4 0 -1.86 0.36 -1.86 1.4 l0 3.26 c0 0.52 0.26 0.62 0.66 0.62 l0.44 0 c1.62 0 3.02 -0.16 3.84 -0.9 c0.2 -0.18 0.64 -0.14 0.46 0.26 l-1.14 2.52 c-0.16 0.36 -0.46 0.32 -0.68 0.02 c-0.46 -0.64 -1.48 -0.9 -2.64 -0.9 l-0.28 0 c-0.4 0 -0.66 0.1 -0.66 0.62 l0 3.36 c0 1.14 0.48 1.56 2.14 1.56 c3.02 0 4.22 -1.38 4.7 -2.14 c0.14 -0.22 0.68 -0.12 0.68 0.22 c0 1.02 -0.86 3.04 -2.12 3.04 c-1.12 -0.06 -2.22 -0.12 -3.9 -0.12 c-1.84 0 -4.02 -0.06 -5.84 0.12 z M136.50750000000002 20.2 c-0.34 0 -0.52 -0.14 -0.74 -0.38 l-9.52 -9.96 l0 7.6 c0 1.36 0.8 1.58 1.94 1.86 c0.16 0.04 0.08 0.68 -0.12 0.68 l-4.74 0 c-0.16 0 -0.28 -0.62 -0.1 -0.68 c0.84 -0.28 1.64 -0.44 1.64 -1.86 l0 -7.76 c0 -1.42 -0.22 -2.1 -0.74 -2.8 c-0.18 -0.24 -0.36 -0.4 -0.36 -0.46 c0 -0.18 0.12 -0.44 0.4 -0.44 l1.48 0 c0.2 0 0.34 0.02 0.48 0.18 l9.32 9.86 l0 -7.52 c0 -1.42 -0.9 -1.58 -1.94 -1.84 c-0.16 -0.04 -0.08 -0.68 0.12 -0.68 l4.74 0 c0.16 0 0.26 0.64 0.1 0.68 c-0.88 0.26 -1.64 0.42 -1.64 1.84 l0 7.78 c0 1.32 0.04 2.78 0.24 3.52 c0.08 0.3 -0.24 0.38 -0.56 0.38 z M143.46 20.04 c-0.2 0.02 -0.28 -0.68 -0.12 -0.72 c1.16 -0.3 2.06 -0.48 2.06 -1.96 l0 -8.88 c0 -1.28 -0.82 -1.62 -1.68 -1.84 c-0.16 -0.04 -0.06 -0.7 0.1 -0.68 c0.82 0.1 1.66 0.12 2.5 0.12 c1.56 0 2.96 -0.12 3.98 -0.12 c4.84 0 7.46 2.88 7.46 6.74 c0 3.84 -2.62 7.34 -7.48 7.34 c-0.96 0 -2.2 -0.12 -3.68 -0.12 c-1.24 0 -2.22 0.02 -3.14 0.12 z M150.48000000000002 18.98 c3.26 0 4.88 -1.76 4.88 -5.14 c0 -3.82 -2.08 -6.82 -5.68 -6.82 c-1.42 0 -1.88 0.44 -1.88 1.46 l0 8.88 c0 1.08 0.74 1.62 2.68 1.62 z M170.185 20.04 c-0.2 0.02 -0.28 -0.68 -0.12 -0.72 c1.16 -0.3 2.06 -0.48 2.06 -1.96 l0 -8.88 c0 -1.28 -0.82 -1.62 -1.68 -1.84 c-0.16 -0.04 -0.06 -0.7 0.1 -0.68 c0.82 0.1 1.66 0.12 2.5 0.12 c1.56 0 2.96 -0.12 3.98 -0.12 c4.84 0 7.46 2.88 7.46 6.74 c0 3.84 -2.62 7.34 -7.48 7.34 c-0.96 0 -2.2 -0.12 -3.68 -0.12 c-1.24 0 -2.22 0.02 -3.14 0.12 z M177.205 18.98 c3.26 0 4.88 -1.76 4.88 -5.14 c0 -3.82 -2.08 -6.82 -5.68 -6.82 c-1.42 0 -1.88 0.44 -1.88 1.46 l0 8.88 c0 1.08 0.74 1.62 2.68 1.62 z M189.5975 20.04 c-0.2 0.02 -0.28 -0.68 -0.12 -0.72 c1.16 -0.3 2.06 -0.48 2.06 -1.96 l0 -8.88 c0 -1.28 -0.82 -1.62 -1.68 -1.84 c-0.16 -0.04 -0.06 -0.7 0.1 -0.68 c1.46 0.16 3.98 0.12 5.2 0.12 c1.82 0 3.14 -0.08 4.78 -0.12 c0.48 0 0.48 0.32 0.38 0.78 l-0.48 1.9 c-0.06 0.28 -0.56 0.28 -0.64 0 c-0.3 -0.98 -0.9 -1.54 -3.4 -1.54 c-1.4 0 -1.86 0.36 -1.86 1.4 l0 3.26 c0 0.52 0.26 0.62 0.66 0.62 l0.44 0 c1.62 0 3.02 -0.16 3.84 -0.9 c0.2 -0.18 0.64 -0.14 0.46 0.26 l-1.14 2.52 c-0.16 0.36 -0.46 0.32 -0.68 0.02 c-0.46 -0.64 -1.48 -0.9 -2.64 -0.9 l-0.28 0 c-0.4 0 -0.66 0.1 -0.66 0.62 l0 3.36 c0 1.14 0.48 1.56 2.14 1.56 c3.02 0 4.22 -1.38 4.7 -2.14 c0.14 -0.22 0.68 -0.12 0.68 0.22 c0 1.02 -0.86 3.04 -2.12 3.04 c-1.12 -0.06 -2.22 -0.12 -3.9 -0.12 c-1.84 0 -4.02 -0.06 -5.84 0.12 z M221.17000000000002 6 c0.22 0 0.3 0.64 0.04 0.68 c-0.8 0.12 -1.32 0.44 -2.04 2.12 l-3.38 7.86 c-0.7 1.62 -1.02 2.54 -1.02 3.34 c0 0.12 -1.38 0.44 -1.44 0.3 l-4.86 -11.48 c-0.72 -1.72 -1.26 -2.02 -2.04 -2.14 c-0.26 -0.04 -0.2 -0.68 0.06 -0.68 l5.26 0 c0.26 0 0.3 0.64 0.06 0.68 c-0.74 0.12 -1.48 0.44 -0.78 2.12 l3.38 8.12 l3.38 -8.12 c0.72 -1.72 -0.08 -1.98 -1 -2.12 c-0.26 -0.04 -0.2 -0.68 0.06 -0.68 l4.32 0 z M226.0825 20.04 c-0.2 0.02 -0.28 -0.68 -0.12 -0.72 c1.16 -0.3 2.06 -0.48 2.06 -1.96 l0 -8.88 c0 -1.28 -0.82 -1.62 -1.68 -1.84 c-0.16 -0.04 -0.06 -0.7 0.1 -0.68 c1.46 0.16 3.98 0.12 5.2 0.12 c1.82 0 3.14 -0.08 4.78 -0.12 c0.48 0 0.48 0.32 0.38 0.78 l-0.48 1.9 c-0.06 0.28 -0.56 0.28 -0.64 0 c-0.3 -0.98 -0.9 -1.54 -3.4 -1.54 c-1.4 0 -1.86 0.36 -1.86 1.4 l0 3.26 c0 0.52 0.26 0.62 0.66 0.62 l0.44 0 c1.62 0 3.02 -0.16 3.84 -0.9 c0.2 -0.18 0.64 -0.14 0.46 0.26 l-1.14 2.52 c-0.16 0.36 -0.46 0.32 -0.68 0.02 c-0.46 -0.64 -1.48 -0.9 -2.64 -0.9 l-0.28 0 c-0.4 0 -0.66 0.1 -0.66 0.62 l0 3.36 c0 1.14 0.48 1.56 2.14 1.56 c3.02 0 4.22 -1.38 4.7 -2.14 c0.14 -0.22 0.68 -0.12 0.68 0.22 c0 1.02 -0.86 3.04 -2.12 3.04 c-1.12 -0.06 -2.22 -0.12 -3.9 -0.12 c-1.84 0 -4.02 -0.06 -5.84 0.12 z M242.85500000000002 20.04 c-0.2 0.02 -0.28 -0.68 -0.12 -0.72 c1.16 -0.3 2.06 -0.48 2.06 -1.96 l0 -8.88 c0 -1.4 -0.82 -1.68 -1.68 -1.8 c-0.16 -0.02 -0.04 -0.68 0.1 -0.68 l5.52 0 c0.14 0 0.24 0.66 0.1 0.68 c-0.84 0.1 -1.64 0.4 -1.64 1.8 l0 8.88 c0 1.14 0.48 1.56 2.14 1.56 c3.02 0 4.22 -1.38 4.7 -2.14 c0.14 -0.22 0.68 -0.12 0.68 0.22 c0 1.02 -0.86 3.04 -2.12 3.04 c-1.12 -0.06 -2.22 -0.12 -3.9 -0.12 c-1.84 0 -4.02 -0.06 -5.84 0.12 z M267.0475 20.32 c-4.16 0 -7.22 -3.08 -7.22 -7.24 c0 -4.04 2.88 -7.4 7.26 -7.4 c4.18 0 7.22 3.06 7.22 7.22 c0 4.06 -2.86 7.42 -7.26 7.42 z M267.82750000000004 18.96 c1.76 0 4.1 -1.16 4.1 -4.94 c0 -4.04 -2.74 -6.98 -5.62 -6.98 c-1.76 0 -4.08 1.16 -4.08 4.92 c0 4.08 2.74 7 5.6 7 z M291.52000000000004 10.24 c0 3.56 -3.34 5.06 -7.76 4.4 l0 2.88 c0 1.4 0.96 1.64 2.24 1.8 c0.14 0.02 0.04 0.68 -0.12 0.68 l-6.06 0 c-0.16 0 -0.28 -0.66 -0.12 -0.68 c1.02 -0.14 1.66 -0.54 1.66 -1.8 l0 -8.92 c0 -1.32 -0.7 -1.7 -1.66 -1.96 c-0.16 -0.04 -0.06 -0.7 0.12 -0.68 c0.78 0.1 1.66 0.12 2.3 0.12 c1.48 0 2.72 -0.12 3.74 -0.12 c3.1 0 5.66 1.14 5.66 4.28 z M285.36000000000007 7 c-1.26 0 -1.6 0.44 -1.6 1.6 l0 5.06 c3.4 0.48 5.18 -0.34 5.18 -2.96 c0 -2.38 -1.52 -3.7 -3.58 -3.7 z M296.63250000000005 20.04 c-0.2 0.02 -0.28 -0.68 -0.12 -0.72 c1.16 -0.3 2.06 -0.48 2.06 -1.96 l0 -8.88 c0 -1.28 -0.82 -1.62 -1.68 -1.84 c-0.16 -0.04 -0.06 -0.7 0.1 -0.68 c1.46 0.16 3.98 0.12 5.2 0.12 c1.82 0 3.14 -0.08 4.78 -0.12 c0.48 0 0.48 0.32 0.38 0.78 l-0.48 1.9 c-0.06 0.28 -0.56 0.28 -0.64 0 c-0.3 -0.98 -0.9 -1.54 -3.4 -1.54 c-1.4 0 -1.86 0.36 -1.86 1.4 l0 3.26 c0 0.52 0.26 0.62 0.66 0.62 l0.44 0 c1.62 0 3.02 -0.16 3.84 -0.9 c0.2 -0.18 0.64 -0.14 0.46 0.26 l-1.14 2.52 c-0.16 0.36 -0.46 0.32 -0.68 0.02 c-0.46 -0.64 -1.48 -0.9 -2.64 -0.9 l-0.28 0 c-0.4 0 -0.66 0.1 -0.66 0.62 l0 3.36 c0 1.14 0.48 1.56 2.14 1.56 c3.02 0 4.22 -1.38 4.7 -2.14 c0.14 -0.22 0.68 -0.12 0.68 0.22 c0 1.02 -0.86 3.04 -2.12 3.04 c-1.12 -0.06 -2.22 -0.12 -3.9 -0.12 c-1.84 0 -4.02 -0.06 -5.84 0.12 z M328.20500000000004 19.5 c0.16 0 0.12 0.54 0 0.58 c-1.26 0.42 -3 0.36 -4.2 -1.18 l-3.08 -3.96 c-0.86 -1.12 -1.88 -1.28 -3.28 -1.3 l0 3.88 c0 1.4 0.96 1.64 2.24 1.8 c0.14 0.02 0.04 0.68 -0.12 0.68 l-6.06 0 c-0.16 0 -0.28 -0.66 -0.12 -0.68 c1.02 -0.14 1.66 -0.54 1.66 -1.8 l0 -8.92 c0 -1.32 -0.7 -1.7 -1.66 -1.96 c-0.16 -0.04 -0.06 -0.7 0.12 -0.68 c0.78 0.1 1.66 0.12 2.3 0.12 c1.48 0 2.86 -0.12 3.82 -0.12 c3.02 0 5.04 1.24 5.04 3.7 c0 2.32 -1.88 3.46 -3.56 3.56 l0 0.1 c0.8 0 1.38 0.34 2.26 1.44 l2.98 3.74 c0.62 0.78 1.22 1 1.66 1 z M318.225 12.719999999999999 c2.98 0 4.12 -0.52 4.12 -2.52 c0 -2.14 -1.36 -3.2 -3.14 -3.2 c-1.18 0 -1.56 0.48 -1.56 1.6 l0 4.12 l0.58 0 z"/>
  </g>
</svg>
